<?xml version="1.0" encoding="utf-8"?>
<!-- Generator: Adobe Illustrator 15.0.0, SVG Export Plug-In . SVG Version: 6.00 Build 0)  -->
<!DOCTYPE svg PUBLIC "-//W3C//DTD SVG 1.1//EN" "http://www.w3.org/Graphics/SVG/1.1/DTD/svg11.dtd">
<svg version="1.1" id="Capa_1" xmlns="http://www.w3.org/2000/svg" xmlns:xlink="http://www.w3.org/1999/xlink" x="0px" y="0px"
	 width="400px" height="400px" viewBox="0 0 400 400" enable-background="new 0 0 400 400" xml:space="preserve">
<g>
	<path fill="#761800" d="M399.339,124.946C393.5,60.681,348.013,14.055,291.086,14.055c-37.926,0-72.65,20.409-92.19,53.118
		c-19.363-33.132-52.665-53.126-89.982-53.126C51.995,14.047,6.5,60.673,0.669,124.938c-0.462,2.838-2.354,17.778,3.4,42.141
		c8.293,35.14,27.448,67.104,55.38,92.413l139.354,126.461L340.551,259.5c27.932-25.317,47.087-57.273,55.38-92.421
		C401.685,142.724,399.792,127.784,399.339,124.946z M380.953,163.556c-7.57,32.094-25.117,61.334-50.695,84.505L198.896,365.26
		L69.789,248.092c-25.625-23.217-43.164-52.45-50.741-84.544c-5.447-23.055-3.208-36.079-3.2-36.164l0.115-0.777
		c5-56.303,44.087-97.175,92.952-97.175c36.056,0,67.796,22.155,82.858,57.811l7.085,16.793l7.086-16.793
		c14.823-35.11,48.24-57.803,85.15-57.803c48.856,0,87.951,40.871,93.052,97.905C384.16,127.469,386.399,140.5,380.953,163.556z"/>
	<path fill="#761800" d="M123.076,60.804c-42.417,0-76.927,34.509-76.927,76.927c0,4.254,3.438,7.693,7.693,7.693
		c4.254,0,7.692-3.438,7.692-7.693c0-33.933,27.609-61.542,61.542-61.542c4.254,0,7.693-3.438,7.693-7.693
		C130.769,64.242,127.323,60.804,123.076,60.804z"/>
</g>
</svg>
