<?xml version="1.0" encoding="utf-8"?>
<!-- Generator: Adobe Illustrator 15.0.0, SVG Export Plug-In . SVG Version: 6.00 Build 0)  -->
<!DOCTYPE svg PUBLIC "-//W3C//DTD SVG 1.1//EN" "http://www.w3.org/Graphics/SVG/1.1/DTD/svg11.dtd">
<svg version="1.1" id="Layer_1" xmlns="http://www.w3.org/2000/svg" xmlns:xlink="http://www.w3.org/1999/xlink" x="0px" y="0px"
	 width="400px" height="400px" viewBox="0 0 400 400" enable-background="new 0 0 400 400" xml:space="preserve">
<path fill="none" stroke="#70CFEF" stroke-width="7" stroke-miterlimit="10" d="M200,166.712c18.408,0,33.333,14.903,33.333,33.288
	c0,18.386-14.925,33.287-33.333,33.287S166.667,218.384,166.667,200C166.667,181.617,181.591,166.712,200,166.712z M200,133.424
	c96.651,0,175,29.806,175,66.576c0,36.77-78.351,66.576-175,66.576c-96.65,0-175-29.807-175-66.576
	C25,163.231,103.35,133.424,200,133.424z M257.737,233.287C209.411,316.876,144.389,369.734,112.5,351.35
	c-31.889-18.386-18.559-101.05,29.767-184.638C190.591,83.125,255.615,30.266,287.498,48.651
	C319.385,67.037,306.059,149.701,257.737,233.287z M257.737,166.712c48.321,83.588,61.651,166.256,29.761,184.638
	c-31.888,18.383-96.909-34.474-145.236-118.063C93.936,149.701,80.611,67.034,112.5,48.651
	C144.389,30.268,209.409,83.125,257.737,166.712z"/>
</svg>
