<?xml version="1.0" encoding="utf-8"?>
<!-- Generator: Adobe Illustrator 15.0.0, SVG Export Plug-In . SVG Version: 6.00 Build 0)  -->
<!DOCTYPE svg PUBLIC "-//W3C//DTD SVG 1.1//EN" "http://www.w3.org/Graphics/SVG/1.1/DTD/svg11.dtd">
<svg version="1.1" id="Capa_1" xmlns="http://www.w3.org/2000/svg" xmlns:xlink="http://www.w3.org/1999/xlink" x="0px" y="0px"
	 width="400px" height="400px" viewBox="0 0 400 400" enable-background="new 0 0 400 400" xml:space="preserve">
<g>
	<g>
		<path fill="#761800" d="M320.878,30.197h-48.847l12.035-12.035c4.158-4.159,4.158-10.884,0-15.043
			c-4.16-4.159-10.885-4.159-15.044,0l-30.087,30.175c-2.035,2.036-3.098,4.69-3.098,7.522c0,2.832,1.15,5.486,3.098,7.521
			l30.176,30.175c2.035,2.036,4.777,3.097,7.521,3.097c2.742,0,5.397-1.062,7.521-3.097c4.159-4.159,4.159-10.884,0-15.043
			l-12.035-12.035h48.848c31.768,0,57.519,25.839,57.519,57.519v35.662c0,5.84,4.778,10.619,10.619,10.619
			c5.84,0,10.618-4.779,10.618-10.619v-35.662C399.723,65.505,364.327,30.197,320.878,30.197z"/>
		<path fill="#761800" d="M388.308,204.348H213.893c-5.84,0-10.619,4.777-10.619,10.618v174.415c0,5.841,4.779,10.619,10.619,10.619
			h174.415c5.841,0,10.619-4.778,10.619-10.619V214.966C398.927,209.037,394.148,204.348,388.308,204.348z M377.688,378.762H224.512
			V225.585h153.177V378.762L377.688,378.762z"/>
		<path fill="#761800" d="M130.888,321.509c-4.159-4.159-10.884-4.159-15.043,0c-4.159,4.159-4.159,10.884,0,15.044l12.035,12.034
			H79.033c-31.768,0-57.519-25.839-57.519-57.519v-35.662c0-5.84-4.778-10.619-10.619-10.619s-10.619,4.779-10.619,10.619v35.662
			c0,43.449,35.308,78.756,78.757,78.756h48.847l-12.035,12.035c-4.159,4.159-4.159,10.885,0,15.043
			c2.036,2.035,4.779,3.098,7.522,3.098s5.398-1.063,7.521-3.098l30.175-30.175c4.159-4.159,4.159-10.884,0-15.044L130.888,321.509z
			"/>
		<path fill="#761800" d="M11.691,21.26c2.832,0,5.575-1.15,7.521-3.097s3.097-4.69,3.097-7.521c0-2.743-1.15-5.575-3.097-7.522
			s-4.69-3.097-7.521-3.097S6.117,1.172,4.17,3.119c-1.947,1.947-3.098,4.69-3.098,7.522s1.15,5.575,3.098,7.521
			C6.205,20.109,8.86,21.26,11.691,21.26z"/>
		<path fill="#761800" d="M98.943,21.26c5.84,0,10.619-4.778,10.619-10.619S104.784,0.022,98.943,0.022S88.324,4.801,88.324,10.641
			S93.014,21.26,98.943,21.26z"/>
		<path fill="#761800" d="M55.317,21.26c5.84,0,10.619-4.778,10.619-10.619S61.158,0.022,55.317,0.022S44.698,4.801,44.698,10.641
			S49.477,21.26,55.317,21.26z"/>
		<path fill="#761800" d="M142.48,21.26c5.84,0,10.619-4.778,10.619-10.619S148.321,0.022,142.48,0.022s-10.619,4.779-10.619,10.619
			S136.64,21.26,142.48,21.26z"/>
		<path fill="#761800" d="M186.106,0.022c-2.743,0-5.575,1.15-7.521,3.097s-3.097,4.69-3.097,7.522s1.15,5.575,3.097,7.521
			s4.69,3.097,7.521,3.097s5.575-1.15,7.522-3.097s3.097-4.69,3.097-7.521s-1.15-5.575-3.097-7.522S188.938,0.022,186.106,0.022z"/>
		<path fill="#761800" d="M186.106,130.9c-5.84,0-10.619,4.778-10.619,10.619c0,5.841,4.778,10.619,10.619,10.619
			s10.619-4.778,10.619-10.619C196.726,135.59,192.035,130.9,186.106,130.9z"/>
		<path fill="#761800" d="M186.106,87.274c-5.84,0-10.619,4.778-10.619,10.619c0,5.841,4.778,10.619,10.619,10.619
			s10.619-4.778,10.619-10.619C196.726,91.964,192.035,87.274,186.106,87.274z"/>
		<path fill="#761800" d="M186.106,43.648c-5.84,0-10.619,4.779-10.619,10.619s4.778,10.619,10.619,10.619
			s10.619-4.778,10.619-10.619S192.035,43.648,186.106,43.648z"/>
		<path fill="#761800" d="M186.106,174.438c-2.832,0-5.575,1.15-7.521,3.097c-1.947,1.947-3.097,4.69-3.097,7.522
			c0,2.743,1.15,5.575,3.097,7.521s4.69,3.097,7.521,3.097s5.575-1.15,7.522-3.097s3.097-4.69,3.097-7.521s-1.15-5.575-3.097-7.522
			C191.682,175.588,188.938,174.438,186.106,174.438z"/>
		<path fill="#761800" d="M142.48,195.675c5.84,0,10.619-4.778,10.619-10.619s-4.779-10.619-10.619-10.619
			s-10.619,4.778-10.619,10.619C131.862,190.985,136.64,195.675,142.48,195.675z"/>
		<path fill="#761800" d="M98.943,195.675c5.84,0,10.619-4.778,10.619-10.619s-4.778-10.619-10.619-10.619
			s-10.619,4.778-10.619,10.619C88.324,190.985,93.014,195.675,98.943,195.675z"/>
		<path fill="#761800" d="M55.317,195.675c5.84,0,10.619-4.778,10.619-10.619s-4.778-10.619-10.619-10.619
			s-10.619,4.778-10.619,10.619C44.698,190.985,49.477,195.675,55.317,195.675z"/>
		<path fill="#761800" d="M11.691,195.675c2.832,0,5.575-1.15,7.521-3.097s3.097-4.69,3.097-7.521s-1.15-5.575-3.097-7.522
			c-1.947-1.946-4.69-3.097-7.521-3.097s-5.575,1.15-7.521,3.097c-1.947,1.947-3.098,4.69-3.098,7.522
			c0,2.743,1.15,5.575,3.098,7.521C6.205,194.524,8.86,195.675,11.691,195.675z"/>
		<path fill="#761800" d="M11.691,152.138c5.84,0,10.619-4.778,10.619-10.619c0-5.84-4.778-10.619-10.619-10.619
			s-10.619,4.778-10.619,10.619C1.072,147.359,5.851,152.138,11.691,152.138z"/>
		<path fill="#761800" d="M11.691,108.512c5.84,0,10.619-4.778,10.619-10.619c0-5.84-4.778-10.619-10.619-10.619
			S1.072,92.052,1.072,97.893C1.072,103.733,5.851,108.512,11.691,108.512z"/>
		<path fill="#761800" d="M11.691,64.886c5.84,0,10.619-4.778,10.619-10.619s-4.778-10.619-10.619-10.619S1.072,48.427,1.072,54.267
			S5.851,64.886,11.691,64.886z"/>
	</g>
</g>
</svg>
