<?xml version="1.0" encoding="utf-8"?>
<!-- Generator: Adobe Illustrator 15.0.0, SVG Export Plug-In . SVG Version: 6.00 Build 0)  -->
<!DOCTYPE svg PUBLIC "-//W3C//DTD SVG 1.1//EN" "http://www.w3.org/Graphics/SVG/1.1/DTD/svg11.dtd">
<svg version="1.1" id="Layer_1" xmlns="http://www.w3.org/2000/svg" xmlns:xlink="http://www.w3.org/1999/xlink" x="0px" y="0px"
	 width="400px" height="400px" viewBox="0 0 400 400" enable-background="new 0 0 400 400" xml:space="preserve">
<g>
	<g>
		<path fill="#761800" d="M342.853,93.118c-2.572-1.69-6.01-1.135-7.92,1.277L168.854,304.182
			c-4.926,6.187-7.147,13.922-6.255,21.78s4.791,14.899,10.977,19.825c5.293,4.214,11.717,6.449,18.384,6.449
			c1.126,0,2.261-0.064,3.396-0.192c7.858-0.892,14.899-4.79,19.825-10.978c1.306-1.641,3.055-4.504,3.393-5.062
			c0.053-0.087,0.104-0.176,0.151-0.267l126.101-234.844C346.28,98.181,345.425,94.807,342.853,93.118z M208.332,329.978
			c-0.691,1.132-1.854,2.942-2.447,3.688c-2.949,3.705-7.164,6.039-11.87,6.572c-4.705,0.533-9.336-0.797-13.04-3.746
			c-3.705-2.949-6.039-7.164-6.573-11.869s0.796-9.336,3.756-13.053l124.503-157.268L208.332,329.978z"/>
	</g>
</g>
<g>
	<g>
		<path fill="#761800" d="M349.835,120.276c-2.138-2.489-5.889-2.772-8.378-0.635c-2.489,2.138-2.773,5.889-0.635,8.377
			c29.208,33.999,45.85,77.044,47.205,121.796H337.71c-3.173-22.327-10.335-43.631-21.32-63.395c-1.594-2.867-5.211-3.9-8.078-2.306
			c-2.867,1.594-3.9,5.211-2.306,8.078c11.083,19.937,18.004,41.548,20.573,64.231c0.34,3.003,2.881,5.271,5.902,5.271h61.578
			c3.28,0,5.94-2.66,5.94-5.94C399.999,206.045,382.184,157.931,349.835,120.276z"/>
	</g>
</g>
<g>
	<g>
		<path fill="#761800" d="M314.785,87.845c-19.365-14.184-40.811-24.81-63.736-31.583c-19.068-5.639-38.93-8.498-59.031-8.498
			c-25.529,0-50.461,4.572-74.104,13.59c-3.065,1.168-4.603,4.602-3.434,7.667s4.604,4.603,7.667,3.433
			c22.286-8.5,45.793-12.809,69.87-12.809c18.961,0,37.688,2.695,55.664,8.011c21.61,6.384,41.825,16.401,60.084,29.774
			c1.058,0.775,2.287,1.148,3.505,1.148c1.829,0,3.634-0.842,4.798-2.432C318.006,93.5,317.433,89.783,314.785,87.845z"/>
	</g>
</g>
<g>
	<g>
		<path fill="#761800" d="M282.263,142.312c-15.669-14.939-33.626-26.902-53.373-35.557c-23.413-10.266-48.348-15.47-74.112-15.47
			c-41.678,0-81.369,13.962-113.354,38.827c17.094-20.473,38.314-37.432,62.469-49.603c2.93-1.477,4.108-5.048,2.632-7.979
			c-1.476-2.93-5.047-4.107-7.979-2.632C54.53,92.078,19.701,129.25,0.473,174.569c-1.198,2.822-0.051,6.091,2.647,7.547
			c0.895,0.483,1.862,0.714,2.818,0.714c1.927,0,3.807-0.938,4.944-2.643c32.207-48.229,85.999-77.023,143.896-77.023
			c24.112,0,47.441,4.868,69.34,14.47c18.477,8.099,35.28,19.294,49.945,33.275c2.375,2.264,6.136,2.175,8.399-0.201
			C284.727,148.335,284.638,144.576,282.263,142.312z"/>
	</g>
</g>
<g>
	<g>
		<path fill="#761800" d="M192.997,319.578c-2.148-1.35-4.978-1.184-6.944,0.424c-4.224,3.453-1.677,10.537,3.764,10.537
			c2.694,0,5.108-1.891,5.765-4.502C196.197,323.59,195.136,320.923,192.997,319.578z"/>
	</g>
</g>
</svg>
