<?xml version="1.0" encoding="utf-8"?>
<!-- Generator: Adobe Illustrator 15.0.0, SVG Export Plug-In . SVG Version: 6.00 Build 0)  -->
<!DOCTYPE svg PUBLIC "-//W3C//DTD SVG 1.1//EN" "http://www.w3.org/Graphics/SVG/1.1/DTD/svg11.dtd">
<svg version="1.1" id="Layer_1" xmlns="http://www.w3.org/2000/svg" xmlns:xlink="http://www.w3.org/1999/xlink" x="0px" y="0px"
	 width="400px" height="400px" viewBox="0 0 400 400" enable-background="new 0 0 400 400" xml:space="preserve">
<g>
	<path fill="#3D8840" d="M273.916,181.326c0,0-2.965-22.068-30.218-22.068c-27.249,0-45.905,3.081-45.905,16.162
		c0,13.091,53.022,13.091,73.158,18.213c20.15,5.133,37.919,18.471,29.029,42.075c-8.885,23.603-36.134,26.164-78.199,26.164
		c-42.06,0-51.539-30.273-51.539-42.068h23.695c0,0-2.963,18.47,24.874,21.547c27.85,3.077,54.473,4.808,58.061-13.853
		c4.737-24.63-90.051-12.313-98.34-36.427c-7.007-20.372-2.967-47.203,44.427-51.305c47.398-4.108,73.463,14.013,73.463,41.043
		L273.916,181.326z"/>
	<path fill="#3D8840" d="M45.002,277.504l52.388,26.191c26.322,13.161,59.225-3.289,59.225-29.614v-45.897v-84.48h-21.352v125.235
		c0,14.379-17.969,23.362-32.345,16.172l-36.564-18.285V133.174l133.647-66.817l133.646,66.817v133.651l-133.646,66.823
		l-38.501-19.25l-25.143,8.777L199.996,355L355,277.493V122.501L200.002,45L45,122.507v154.997H45.002L45.002,277.504z"/>
</g>
</svg>