<?xml version="1.0" encoding="utf-8"?>
<!-- Generator: Adobe Illustrator 15.0.0, SVG Export Plug-In . SVG Version: 6.00 Build 0)  -->
<!DOCTYPE svg PUBLIC "-//W3C//DTD SVG 1.1//EN" "http://www.w3.org/Graphics/SVG/1.1/DTD/svg11.dtd">
<svg version="1.1" id="Layer_1" xmlns="http://www.w3.org/2000/svg" xmlns:xlink="http://www.w3.org/1999/xlink" x="0px" y="0px"
	 width="400px" height="400px" viewBox="0 0 400 400" enable-background="new 0 0 400 400" xml:space="preserve">
<g transform="matrix(0.592967, 0, 0, 0.592967, 104.201, 104.201)">
	<path fill="#42BEEE" d="M422.956,422.956H-99.839V-99.839h522.795V422.956z"/>
	<path fill="#42BEEE" d="M422.956,422.956H161.559V-99.839h261.397V422.956z"/>
	<path fill="#0A1E25" d="M392.324,392.324H-69.207V-69.208h461.531V392.324z"/>
	<path fill="#0A1E25" d="M392.324,392.324H161.559V-69.208h230.765V392.324z"/>
	<path fill="#42BEEE" d="M43.993,259.583V85.589h73.763c33.762,0,55.385,31.042,55.385,57.835c0,31.582-24.005,57.832-54.158,57.832
		H77.813v58.327H43.993z M77.813,171.607h39.209c11.862,0,21.81-11.069,21.81-28.183c0-14.704-8.927-28.183-23.281-28.183H77.813
		V171.607z"/>
	<g>
		<path fill="#42BEEE" d="M241.997,262.035c-29.641,0-50.728-13.478-58.078-19.849L196.17,221.6
			c7.841,5.553,25.889,16.907,45.092,16.907c12.449,0,21.077-5.217,21.077-14.214c0-11.044-18.221-14.618-28.184-17.4
			c-8.33-2.286-45.825-7.554-45.825-35.779c0-27.17,23.641-42.395,50.483-42.395c28.169,0,43.212,11.438,50.232,17.645
			l-13.228,19.849c-6.538-4.9-21.084-14.213-37.25-14.213c-11.915,0-19.606,5.091-19.606,14.457
			c0,11.695,20.501,15.038,25.244,16.179c8.821,2.286,49.747,8.533,49.747,38.717C293.952,257.03,258.008,262.035,241.997,262.035z"
			/>
		<path fill="#42BEEE" d="M161.559,108.831v70.264c7.263-9.875,11.581-22.293,11.581-35.671
			C173.14,131.724,169.016,119.213,161.559,108.831z"/>
	</g>
</g>
</svg>