<?xml version="1.0" encoding="utf-8"?>
<!-- Generator: Adobe Illustrator 15.0.0, SVG Export Plug-In . SVG Version: 6.00 Build 0)  -->
<!DOCTYPE svg PUBLIC "-//W3C//DTD SVG 1.1//EN" "http://www.w3.org/Graphics/SVG/1.1/DTD/svg11.dtd">
<svg version="1.1" id="Layer_1" xmlns="http://www.w3.org/2000/svg" xmlns:xlink="http://www.w3.org/1999/xlink" x="0px" y="0px"
	 width="400px" height="400px" viewBox="0 0 400 400" enable-background="new 0 0 400 400" xml:space="preserve">
<g transform="matrix(0.525597, 0, 0, 0.525597, 121.447, 121.447)">
	<g>
		<path d="M-30.678-183.494c-7.104,0-12.869,6.214-12.869,13.876v55.491c0,7.665,5.764,13.873,12.869,13.873
			c7.106,0,12.866-6.208,12.866-13.873v-55.491C-17.812-177.285-23.572-183.494-30.678-183.494z"/>
		<path d="M20.792-128.004h-51.47c-7.11,0-12.873-6.208-12.873-13.875c0-7.664,5.764-13.872,12.873-13.872h51.47
			c7.112,0,12.874,6.208,12.874,13.872C33.666-134.212,27.907-128.004,20.792-128.004z"/>
		<path d="M20.792-100.256c-7.105,0-12.864-6.214-12.864-13.88v-55.484c0-7.665,5.759-13.88,12.864-13.88
			c7.112,0,12.874,6.215,12.874,13.88v55.484C33.666-106.47,27.907-100.256,20.792-100.256z"/>
		<path d="M123.749-155.751H72.271c-7.106,0-12.87-6.209-12.87-13.869c0-7.665,5.764-13.88,12.87-13.88h51.478
			c7.105,0,12.863,6.215,12.863,13.88C136.612-161.96,130.854-155.751,123.749-155.751z"/>
		<path d="M98.009-100.256c-7.112,0-12.874-6.214-12.874-13.88v-55.484c0-7.665,5.764-13.88,12.874-13.88
			c7.106,0,12.865,6.215,12.865,13.88v55.484C110.874-106.47,105.115-100.256,98.009-100.256z"/>
		<path d="M252.433-100.256c-7.111,0-12.87-6.214-12.87-13.88v-13.868l-15.442,22.199c-4.678,6.13-13.08,7.015-18.766,1.962
			c-0.667-0.583-1.275-1.249-1.825-1.962l-15.442-22.199v13.868c0,7.666-5.765,13.88-12.87,13.88
			c-7.105,0-12.869-6.214-12.869-13.88v-55.484c0-7.665,5.764-13.88,12.869-13.88c4.047,0,7.867,2.059,10.299,5.557l28.305,40.671
			l28.318-40.671c4.262-6.131,12.333-7.379,18.013-2.78c3.24,2.62,5.149,6.732,5.149,11.103v55.484
			C265.302-106.47,259.542-100.256,252.433-100.256z"/>
		<path d="M342.517-100.256h-38.609c-7.105,0-12.865-6.214-12.865-13.88v-55.484c0-7.665,5.76-13.88,12.865-13.88
			s12.869,6.215,12.869,13.88v41.616h25.741c7.105,0,12.869,6.209,12.869,13.868C355.385-106.47,349.622-100.256,342.517-100.256z"
			/>
	</g>
	<path fill="#F15A2B" d="M364.904-40.214c-2.434-2.896-5.892-4.548-9.519-4.556H-56.416c-7.106-0.033-12.896,6.153-12.928,13.812
		c0,0.463,0.02,0.911,0.058,1.367l38.608,443.934c0.496,5.7,4.185,10.483,9.286,12.044l180.168,55.491
		c1.158,0.357,2.369,0.535,3.573,0.53c1.382-0.006,2.754-0.236,4.065-0.693l154.424-55.497c4.846-1.73,8.279-6.393,8.755-11.875
		l38.604-443.935C368.536-33.477,367.341-37.329,364.904-40.214z"/>
	<path fill="#FAFAFA" d="M162.355,371.422c-1.195-0.006-2.38-0.191-3.526-0.552L68.744,343.12c-4.424-1.354-7.835-5.15-8.951-9.959
		L46.917,277.67c-1.878-7.389,2.16-15.029,9.009-17.051c6.855-2.025,13.934,2.323,15.813,9.714c0.053,0.206,0.105,0.411,0.146,0.622
		l11.071,47.725l79.119,24.357l65.523-23.558l10.604-114.537H46.531c-6.516,0.056-12.045-5.15-12.866-12.123L20.796,81.836
		c-0.897-7.597,4.095-14.544,11.142-15.512c0.569-0.079,1.148-0.111,1.727-0.111h244.502c7.109,0,12.876,6.215,12.876,13.879
		c0,7.66-5.767,13.868-12.876,13.868H48.232l9.65,83.239h194.555c7.105-0.041,12.896,6.141,12.924,13.809
		c0.007,0.479-0.011,0.968-0.059,1.449l-12.865,138.732c-0.502,5.442-3.917,10.061-8.729,11.796l-77.211,27.74
		C165.161,371.195,163.763,371.433,162.355,371.422z"/>
</g>
</svg>