<?xml version="1.0" encoding="utf-8"?>
<!-- Generator: Adobe Illustrator 15.0.0, SVG Export Plug-In . SVG Version: 6.00 Build 0)  -->
<!DOCTYPE svg PUBLIC "-//W3C//DTD SVG 1.1//EN" "http://www.w3.org/Graphics/SVG/1.1/DTD/svg11.dtd">
<svg version="1.1" id="Layer_1" xmlns="http://www.w3.org/2000/svg" xmlns:xlink="http://www.w3.org/1999/xlink" x="0px" y="0px"
	 width="400px" height="400px" viewBox="0 0 400 400" enable-background="new 0 0 400 400" xml:space="preserve">
<g transform="matrix(1, 0, 0, 1, 0, -60)">
	<polygon fill="#3C8840" points="190.375,318.089 190.375,264.277 146.438,237.37 102.501,264.277 102.501,318.089 146.438,344.997 
			"/>
	<path d="M363.412,309.923l28.632,17.538L363.412,345l-43.935-26.907v-53.813l43.935-26.907l26.626,16.313
		c2.669,11.938,4.348,24.272,4.962,36.902l-16.281,9.97v-18.746l-15.307-9.373l-15.31,9.373v18.744L363.412,309.923z"/>
	<polygon fill="#6EA85D" points="371.938,296.408 371.938,285.96 363.412,280.736 354.882,285.96 354.882,296.408 363.412,301.631 	
		"/>
	<path d="M81.748,264.279v70.963l-29.302-17.73v-36.378l-14.631-8.964l-14.631,8.964v36.375l-16.637,10.07
		C5.526,319.031,5,310.313,5,301.468c0-16.202,1.752-31.978,5.074-47.107l27.741-16.989L81.748,264.279z"/>
	<polygon fill="#6EA85D" points="146.435,237.367 190.37,318.083 146.436,344.989 102.5,264.271 	"/>
	<polygon fill="#55A345" points="102.501,318.089 117.587,291.993 102.501,264.277 	"/>
	<polygon fill="#649D57" points="175.728,291.18 190.375,264.277 146.438,237.37 	"/>
	<path d="M269.156,175v71.394l-14.725-9.023l-43.941,26.908v53.813L254.432,345l43.933-26.907v-126.51L269.156,175z
		 M269.076,300.148l-14.646,8.974l-14.646-8.974v-17.936l14.646-8.971l14.646,8.971V300.148z"/>
</g>
</svg>