<?xml version="1.0" encoding="utf-8"?>
<!-- Generator: Adobe Illustrator 15.0.0, SVG Export Plug-In . SVG Version: 6.00 Build 0)  -->
<!DOCTYPE svg PUBLIC "-//W3C//DTD SVG 1.1//EN" "http://www.w3.org/Graphics/SVG/1.1/DTD/svg11.dtd">
<svg version="1.1" id="Layer_1" xmlns="http://www.w3.org/2000/svg" xmlns:xlink="http://www.w3.org/1999/xlink" x="0px" y="0px"
	 width="400px" height="400px" viewBox="0 0 400 400" enable-background="new 0 0 400 400" xml:space="preserve">
<g>
	
		<radialGradient id="SVGID_1_" cx="366.1123" cy="-234.8755" r="363.0561" gradientTransform="matrix(0.6873 0 0 -0.5848 -127.5398 7.5449)" gradientUnits="userSpaceOnUse">
		<stop  offset="0" style="stop-color:#FFFFFF"/>
		<stop  offset="0.5" style="stop-color:#4D6C98"/>
		<stop  offset="1" style="stop-color:#231F20"/>
	</radialGradient>
	<ellipse fill="url(#SVGID_1_)" cx="200" cy="200" rx="190" ry="85"/>
	<ellipse fill="#6282B7" cx="200" cy="200" rx="182.578" ry="78.685"/>
	<g>
		<path fill="#FFFFFF" d="M236.962,225.513l9.054-39.658c2.079-8.967,0.297-15.661-5.048-19.829
			c-5.195-4.042-14.102-6.063-27.163-6.063h-15.734l4.453-19.703c0.148-0.758,0-1.516-0.594-2.147
			c-0.593-0.631-1.335-0.884-2.227-0.884h-21.671c-1.484,0-2.672,0.884-2.969,2.021l-9.648,42.058
			c-0.891-4.799-2.969-8.841-6.532-12.125c-6.382-6.188-16.328-9.346-29.835-9.346H87.336c-1.484,0-2.672,0.884-2.969,2.021
			l-19.445,85.38c-0.148,0.757,0,1.516,0.594,2.146c0.593,0.632,1.335,0.884,2.227,0.884h21.82c1.484,0,2.672-0.884,2.969-2.021
			l4.75-20.587h16.181c8.46,0,15.733-0.759,21.226-2.273c5.789-1.643,10.984-4.294,15.586-7.957
			c3.711-2.905,6.828-6.188,9.204-9.725l-3.86,17.051c-0.148,0.757,0,1.515,0.594,2.146c0.594,0.632,1.336,0.885,2.227,0.885h21.672
			c1.484,0,2.672-0.885,2.969-2.021l10.687-46.731h14.844c6.382,0,8.164,1.01,8.758,1.515c0.445,0.379,1.335,1.895,0.298,6.568
			l-8.611,37.764c-0.147,0.757,0,1.516,0.595,2.147c0.595,0.631,1.337,0.884,2.227,0.884h22.266
			C235.478,227.533,236.664,226.65,236.962,225.513z M136.617,192.675c-1.335,5.937-3.858,10.229-7.569,12.63
			s-9.797,3.663-17.813,3.663h-9.648l6.976-30.564h12.468c9.204,0,12.915,1.642,14.399,3.031
			C137.359,183.455,137.805,187.37,136.617,192.675z"/>
		<path fill="#FFFFFF" d="M329.586,169.183c-6.383-6.188-16.328-9.346-29.836-9.346h-42.007c-1.484,0-2.674,0.884-2.969,2.021
			l-19.446,85.252c-0.148,0.759,0,1.517,0.594,2.147c0.593,0.632,1.335,0.885,2.227,0.885h21.821c1.484,0,2.671-0.885,2.969-2.021
			l4.748-20.588h16.181c8.461,0,15.733-0.757,21.227-2.273c5.789-1.642,10.984-4.293,15.586-7.956
			c3.86-3.032,7.124-6.441,9.5-10.104c2.375-3.663,4.156-7.704,5.195-12.125C337.899,184.086,335.968,175.498,329.586,169.183z
			 M306.875,192.675c-1.337,5.937-3.858,10.229-7.569,12.63s-9.798,3.663-17.813,3.663h-9.648l6.975-30.564h12.47
			c9.203,0,12.914,1.642,14.398,3.031C307.765,183.455,308.212,187.37,306.875,192.675z"/>
	</g>
	<g>
		<path fill="#050507" d="M121.031,175.877c8.313,0,13.805,1.263,16.625,3.915c2.82,2.652,3.414,7.073,1.929,13.388
			c-1.484,6.568-4.453,11.368-8.757,14.146c-4.305,2.779-10.836,4.169-19.593,4.169H98.023l8.164-35.617H121.031z M67.891,247.615
			h21.821l5.195-22.608h18.702c8.313,0,14.993-0.757,20.336-2.272c5.344-1.517,10.093-3.915,14.546-7.451
			c3.711-2.906,6.68-6.063,8.906-9.473c2.227-3.41,3.86-7.199,4.75-11.368c2.375-10.104,0.594-17.934-5.195-23.618
			s-14.992-8.462-27.609-8.462H87.336L67.891,247.615z"/>
		<path fill="#050507" d="M178.179,139.755h21.673l-5.195,22.608h19.297c12.17,0,20.483,1.768,25.085,5.431
			c4.603,3.663,5.938,9.473,4.155,17.556l-9.054,39.657h-21.969l8.609-37.763c1.039-4.295,0.595-7.199-1.039-8.715
			c-1.633-1.515-5.344-2.399-10.836-2.399h-17.368l-11.133,48.877h-21.671L178.179,139.755z"/>
		<path fill="#050507" d="M291.289,175.877c8.312,0,13.805,1.263,16.625,3.915c2.819,2.652,3.414,7.073,1.93,13.388
			c-1.484,6.568-4.453,11.368-8.759,14.146c-4.304,2.779-10.835,4.169-19.592,4.169h-13.212l8.164-35.617H291.289z M238.148,247.615
			h21.821l5.195-22.608h18.702c8.312,0,14.991-0.757,20.336-2.272c5.344-1.517,10.094-3.915,14.547-7.451
			c3.711-2.906,6.68-6.063,8.906-9.473c2.227-3.41,3.858-7.199,4.75-11.368c2.375-10.104,0.593-17.934-5.195-23.618
			c-5.789-5.684-14.993-8.462-27.61-8.462h-42.007L238.148,247.615z"/>
	</g>
</g>
</svg>