<?xml version="1.0" encoding="utf-8"?>
<!-- Generator: Adobe Illustrator 15.0.0, SVG Export Plug-In . SVG Version: 6.00 Build 0)  -->
<!DOCTYPE svg PUBLIC "-//W3C//DTD SVG 1.1//EN" "http://www.w3.org/Graphics/SVG/1.1/DTD/svg11.dtd">
<svg version="1.1" id="Layer_1" xmlns="http://www.w3.org/2000/svg" xmlns:xlink="http://www.w3.org/1999/xlink" x="0px" y="0px"
	 width="400px" height="400px" viewBox="0 0 400 400" enable-background="new 0 0 400 400" xml:space="preserve">
<g>
	<path fill="#7253A2" d="M259.797,261.502c11.44-1.246,20.119-11.635,19.726-24.102c-0.396-12.466-10.258-22.44-22.093-22.44h-0.787
		c-12.23,0.415-21.698,11.22-21.303,24.103c0.394,6.233,2.76,11.634,6.311,15.375c-13.412,27.842-33.926,48.204-64.695,65.241
		c-20.908,11.637-42.605,15.792-64.302,12.882c-17.752-2.493-31.56-10.805-40.238-24.517c-12.623-20.362-13.807-42.387-3.156-64.41
		c7.495-15.792,19.33-27.427,26.825-33.244c-1.578-5.403-3.945-14.544-5.128-21.194C33.755,232.829,39.673,291.837,57.03,319.679
		c13.018,20.777,39.449,33.659,68.641,33.659c7.89,0,15.78-0.83,23.669-2.908C199.834,340.041,238.1,308.46,259.797,261.502z
		 M329.228,209.974c-29.981-36.984-74.164-57.346-124.658-57.346h-6.313c-3.55-7.48-11.045-12.466-19.33-12.466h-0.789
		c-12.229,0.415-21.697,11.219-21.302,24.101c0.395,12.467,10.256,22.44,22.091,22.44h0.789c8.679-0.416,16.174-6.233,19.331-14.129
		h7.1c29.98,0,58.385,9.143,84.025,27.011c19.726,13.712,33.927,31.583,41.816,53.19c6.707,17.454,6.312,34.492-0.788,49.036
		c-11.047,22.023-29.588,34.075-54.046,34.075c-15.779,0-30.77-4.986-38.66-8.726c-4.338,4.155-12.229,10.803-17.751,14.959
		C237.706,350.43,255.063,355,271.632,355c37.87,0,65.88-22.023,76.53-44.048C359.603,286.851,358.813,245.296,329.228,209.974z
		 M128.827,268.566c0.395,12.467,10.257,22.439,22.091,22.439h0.789c12.229-0.416,21.697-11.22,21.302-24.102
		c-0.394-12.467-10.257-22.44-22.091-22.44h-0.789c-0.79,0-1.973,0-2.762,0.416c-16.174-28.257-22.88-59.008-20.514-92.252
		c1.578-24.934,9.468-46.542,23.275-64.411c11.44-15.375,33.531-22.855,48.522-23.271c41.815-0.832,59.568,54.021,60.75,76.045
		c5.129,1.247,13.808,4.156,19.725,6.233C274.394,79.906,234.944,45,197.074,45c-35.504,0-68.247,27.011-81.265,66.904
		c-18.146,53.19-6.312,104.303,15.779,144.612C129.616,259.424,128.433,263.995,128.827,268.566z"/>
</g>
</svg>