<?xml version="1.0" encoding="utf-8"?>
<!-- Generator: Adobe Illustrator 15.0.0, SVG Export Plug-In . SVG Version: 6.00 Build 0)  -->
<!DOCTYPE svg PUBLIC "-//W3C//DTD SVG 1.1//EN" "http://www.w3.org/Graphics/SVG/1.1/DTD/svg11.dtd">
<svg version="1.1" id="Layer_1" xmlns="http://www.w3.org/2000/svg" xmlns:xlink="http://www.w3.org/1999/xlink" x="0px" y="0px"
	 width="400px" height="400px" viewBox="0 0 400 400" enable-background="new 0 0 400 400" xml:space="preserve">
<g transform="matrix(0.587037, 0, 0, 0.587037, 105.719, 105.719)">
	<path fill="#488FCC" d="M353.51-9.214c-2.184-2.598-5.282-4.076-8.529-4.076H-23.723c-6.36-0.032-11.544,5.505-11.571,12.362
		c0,0.416,0.017,0.82,0.052,1.226L-0.675,397.77c0.443,5.1,3.746,9.386,8.313,10.781l161.311,49.685
		c1.041,0.323,2.119,0.481,3.197,0.476c1.238,0,2.469-0.211,3.646-0.622l138.264-49.682c4.332-1.559,7.408-5.729,7.829-10.638
		L356.452,0.298C356.758-3.178,355.684-6.63,353.51-9.214z"/>
	<g>
		<path fill="#FAFAFA" d="M172.153,359.344c-1.068-0.002-2.129-0.175-3.157-0.497l-80.654-24.84
			c-3.957-1.214-7.018-4.618-8.022-8.92l-11.52-49.68c-1.686-6.621,1.93-13.451,8.067-15.266c6.134-1.817,12.474,2.074,14.158,8.695
			c0.042,0.18,0.084,0.366,0.126,0.559l9.913,42.727l71.082,21.911l70.059-21.588l20.738-201.499H56.93
			c-6.361,0-11.523-5.558-11.523-12.417c0-6.861,5.161-12.424,11.523-12.424h218.917c6.36-0.042,11.553,5.486,11.593,12.342
			c0.003,0.488-0.023,0.967-0.073,1.443l-23.042,223.585c-0.522,5.007-3.801,9.173-8.296,10.554l-80.655,24.847
			C174.326,359.196,173.241,359.35,172.153,359.344z"/>
		<path fill="#FAFAFA" d="M264.325,210.29H68.45c-6.361,0-11.516-5.556-11.516-12.422c0-6.86,5.154-12.423,11.516-12.423h195.875
			c6.365,0,11.527,5.563,11.527,12.423C275.852,204.734,270.69,210.29,264.325,210.29z"/>
	</g>
	<g>
		<path d="M91.499-62.971H45.409c-6.366,0-11.522-5.564-11.522-12.425v-49.682c0-6.86,5.156-12.425,11.522-12.425h46.089
			c6.361,0,11.52,5.565,11.52,12.425c0,6.857-5.159,12.422-11.52,12.422H56.934v24.84h34.563c6.361,0,11.52,5.564,11.52,12.42
			C103.019-68.534,97.859-62.971,91.499-62.971z"/>
		<path d="M183.672-62.971h-46.084c-6.365,0-11.528-5.564-11.528-12.425s5.164-12.42,11.528-12.42h18.272l-26.43-28.472
			c-4.504-4.841-4.512-12.709-0.021-17.563c2.166-2.346,5.109-3.656,8.18-3.652h46.084c6.366,0,11.525,5.565,11.525,12.425
			c0,6.857-5.159,12.417-11.525,12.417h-18.272l26.414,28.473c4.498,4.843,4.512,12.705,0.013,17.565
			C189.669-64.286,186.732-62.976,183.672-62.971z"/>
		<path d="M275.852-62.971h-46.09c-6.365,0-11.522-5.564-11.522-12.425s5.157-12.42,11.522-12.42h18.269l-26.429-28.472
			c-4.505-4.841-4.513-12.709-0.018-17.563c2.169-2.346,5.11-3.656,8.178-3.652h46.09c6.358,0,11.522,5.565,11.522,12.425
			c0,6.857-5.164,12.422-11.522,12.422h-18.279l26.41,28.468c4.502,4.843,4.512,12.709,0.02,17.565
			C281.844-64.286,278.908-62.976,275.852-62.971z"/>
	</g>
</g>
</svg>
