<?xml version="1.0" encoding="utf-8"?>
<!-- Generator: Adobe Illustrator 15.0.0, SVG Export Plug-In . SVG Version: 6.00 Build 0)  -->
<!DOCTYPE svg PUBLIC "-//W3C//DTD SVG 1.1//EN" "http://www.w3.org/Graphics/SVG/1.1/DTD/svg11.dtd">
<svg version="1.1" id="Layer_1" xmlns="http://www.w3.org/2000/svg" xmlns:xlink="http://www.w3.org/1999/xlink" x="0px" y="0px"
	 width="400px" height="400px" viewBox="0 0 400 400" enable-background="new 0 0 400 400" xml:space="preserve">
<g transform="matrix(0.587037, 0, 0, 0.587037, 105.719, 105.719)">
	<path fill="#488FCC" d="M353.51-9.214c-2.184-2.598-5.283-4.076-8.529-4.076H-23.723c-6.36-0.032-11.545,5.505-11.571,12.362
		c0,0.416,0.017,0.82,0.051,1.226l34.568,397.473c0.443,5.1,3.746,9.384,8.313,10.78l161.312,49.685
		c1.04,0.324,2.119,0.481,3.196,0.476c1.238,0,2.47-0.211,3.648-0.622l138.262-49.682c4.334-1.559,7.409-5.729,7.83-10.637
		L356.452,0.298C356.758-3.178,355.684-6.63,353.51-9.214z"/>
	<g>
		<path fill="#FAFAFA" d="M172.152,359.344c-1.068-0.003-2.128-0.175-3.157-0.499l-80.653-24.84
			c-3.957-1.214-7.018-4.618-8.022-8.918l-11.52-49.682c-1.686-6.621,1.929-13.451,8.067-15.265
			c6.134-1.817,12.474,2.073,14.158,8.694c0.042,0.181,0.084,0.366,0.126,0.559l9.913,42.727l71.082,21.911l70.059-21.588
			l20.738-201.499H56.93c-6.361,0-11.522-5.558-11.522-12.417c0-6.861,5.161-12.424,11.522-12.424h218.917
			c6.36-0.042,11.553,5.486,11.593,12.342c0.003,0.488-0.022,0.967-0.072,1.443l-23.043,223.585
			c-0.522,5.006-3.801,9.173-8.296,10.554l-80.654,24.847C174.327,359.196,173.241,359.35,172.152,359.344z"/>
		<path fill="#FAFAFA" d="M264.325,210.29H68.45c-6.361,0-11.516-5.556-11.516-12.422c0-6.86,5.155-12.422,11.516-12.422h195.875
			c6.365,0,11.527,5.561,11.527,12.422C275.852,204.734,270.69,210.29,264.325,210.29z"/>
	</g>
	<g>
		<path fill="#384850" d="M91.499-62.971h-46.09c-6.365,0-11.521-5.563-11.521-12.425v-49.681c0-6.861,5.156-12.425,11.521-12.425
			h46.09c6.361,0,11.52,5.564,11.52,12.425c0,6.857-5.159,12.421-11.52,12.421H56.934v24.84h34.564c6.361,0,11.52,5.564,11.52,12.42
			C103.019-68.534,97.859-62.971,91.499-62.971z"/>
		<path fill="#384850" d="M183.672-62.971h-46.084c-6.365,0-11.528-5.563-11.528-12.425c0-6.861,5.163-12.42,11.528-12.42h18.272
			l-26.431-28.471c-4.504-4.841-4.512-12.709-0.021-17.563c2.166-2.346,5.109-3.656,8.18-3.652h46.084
			c6.366,0,11.525,5.564,11.525,12.425c0,6.857-5.159,12.416-11.525,12.416h-18.274l26.414,28.474
			c4.5,4.843,4.513,12.705,0.015,17.565C189.669-64.286,186.732-62.976,183.672-62.971z"/>
		<path fill="#384850" d="M275.852-62.971h-46.09c-6.365,0-11.522-5.563-11.522-12.425c0-6.861,5.157-12.42,11.522-12.42h18.269
			l-26.429-28.471c-4.505-4.841-4.512-12.709-0.017-17.563c2.168-2.346,5.11-3.656,8.176-3.652h46.09
			c6.36,0,11.522,5.564,11.522,12.425c0,6.857-5.162,12.421-11.522,12.421h-18.277l26.41,28.469
			c4.502,4.843,4.512,12.709,0.02,17.565C281.844-64.286,278.908-62.976,275.852-62.971z"/>
	</g>
</g>
</svg>
